#!OML:ASF I:\Actors\actors\Patient Classification 2\Patient 1\Session 1\actor1.ASF
:FULLY-SPECIFIED
:DEGREES
405
root -0.974777 18.5012 5.77746 -5.9585 -11.8877 -4.48313
lowerback 14.6768 -2.54626 4.78456
upperback 1.66142 -2.29358 4.80888
thorax -6.45627 -1.19392 2.875
lowerneck -13.3151 0.659143 2.40885
upperneck 15.6161 -0.12831 2.80892
head 6.97944 0.324888 0.499891
rclavicle -4.77083e-015 -3.49861e-014
rhumerus -63.2502 -23.5042 -51.9799
rradius 40.8834
rwrist 8.9476
rhand -7.59111 -31.013
rfingers 7.12502
rthumb 18.3022 -60.172
lclavicle -4.77083e-015 -3.49861e-014
lhumerus -33.624 -13.2913 86.388
lradius 59.8249
lwrist 7.87493
lhand -12.7918 -31.1036
lfingers 7.12502
lthumb 13.2939 -1.5476
rfemur 14.2133 6.47301 20.0148
rtibia 1.74931e-014
rfoot -15.981 -8.03725
rtoes -17.4196
lfemur 3.43003 1.19231 -8.7179
ltibia 25.3765
lfoot -23.6552 11.194
ltoes -57.7111
406
root -0.972916 18.5023 5.78166 -5.86759 -12.0075 -4.5678
lowerback 14.6895 -2.66177 4.85101
upperback 1.6428 -2.42736 4.91254
thorax -6.48007 -1.26024 2.97787
lowerneck -13.1337 0.319897 1.65101
upperneck 15.8181 -0.433459 2.8008
head 7.01255 0.133946 0.591784
rclavicle 6.4605e-015 1.43125e-014
rhumerus -63.9849 -23.8029 -50.5092
rradius 41.1968
rwrist 8.53511
rhand -7.35131 -30.6646
rfingers 7.12502
rthumb 18.5329 -59.8018
lclavicle 6.4605e-015 1.43125e-014
lhumerus -33.417 -12.0142 85.0257
lradius 59.7164
lwrist 8.42409
lhand -13.216 -30.4659
lfingers 7.12502
lthumb 12.885 -0.883687
rfemur 14.138 6.62157 20.1252
rtibia -1.74931e-014
rfoot -16.0499 -8.10758
rtoes -17.5697
lfemur 3.37931 1.31995 -8.61448
ltibia 25.4276
lfoot -23.5842 11.2299
ltoes -57.8125
407
root -0.97093 18.504 5.78591 -5.75003 -12.1256 -4.63696
lowerback 14.5422 -2.70907 4.96354
upperback 1.74564 -2.49234 4.9141
thorax -6.2922 -1.29402 2.9162
lowerneck -12.9769 0.168667 1.81323
upperneck 15.8457 -0.538285 2.07559
head 6.99099 0.0280493 0.319797
rclavicle 6.4605e-015 8.11041e-014
rhumerus -64.5976 -24.5006 -49.1836
rradius 41.5633
rwrist 8.06222
rhand -7.44919 -30.6276
rfingers 7.12502
rthumb 18.4388 -59.7737
lclavicle 6.4605e-015 8.11041e-014
lhumerus -32.9846 -11.0636 83.6053
lradius 59.5298
lwrist 9.05631
lhand -13.2702 -29.6753
lfingers 7.12502
lthumb 12.8327 -0.0897704
rfemur 14.0298 6.77121 20.2131
rtibia 5.40694e-014
rfoot -16.1538 -8.16425
rtoes -17.6099
lfemur 3.29192 1.46026 -8.52068
ltibia 25.4797
lfoot -23.5983 11.1674
ltoes -57.8127
408
root -0.967899 18.5078 5.78784 -5.59642 -12.2488 -4.70927
lowerback 14.1294 -2.6497 5.10474
upperback 2.05573 -2.45478 4.84718
thorax -5.74187 -1.27593 2.72017
lowerneck -13.351 -0.119123 1.60715
upperneck 16.051 -0.901373 2.06208
head 7.12393 -0.154527 0.314042
rclavicle 4.28381e-014 -3.18055e-015
rhumerus -65.0322 -25.8011 -47.8961
rradius 41.9386
rwrist 7.51218
rhand -7.86826 -30.8227
rfingers 7.12502
rthumb 18.0356 -60.0064
lclavicle 4.28381e-014 -3.18055e-015
lhumerus -32.1025 -10.4915 82.2043
lradius 59.1274
lwrist 9.54088
lhand -13.2865 -29.0181
lfingers 7.12502
lthumb 12.817 0.568455
rfemur 13.8637 6.92646 20.2989
rtibia 4.13472e-014
rfoot -16.2369 -8.25299
rtoes -17.4428
lfemur 3.1566 1.55046 -8.44383
ltibia 25.5206
lfoot -23.6687 11.1397
ltoes -57.7904
409
root -0.963416 18.511 5.78888 -5.46138 -12.3578 -4.74633
lowerback 14.1453 -2.67007 5.09613
upperback 2.05621 -2.47825 4.91418
thorax -5.74668 -1.28701 2.80194
lowerneck -13.3803 -0.202406 1.34039
upperneck 16.3911 -0.927222 1.83668
head 7.23862 -0.199717 0.282411
rclavicle -5.06901e-015 -1.11319e-014
rhumerus -65.431 -26.4194 -46.5528
rradius 42.3509
rwrist 6.73428
rhand -8.05369 -30.893
rfingers 7.12502
rthumb 17.8572 -60.0931
lclavicle -5.06901e-015 -1.11319e-014
lhumerus -31.8811 -9.63083 81.1576
lradius 58.647
lwrist 9.68948
lhand -13.5274 -28.8102
lfingers 7.12502
lthumb 12.5848 0.790738
rfemur 13.7103 7.07222 20.3453
rtibia 7.95139e-015
rfoot -16.2511 -8.3836
rtoes -17.3037
lfemur 3.02893 1.64309 -8.41404
ltibia 25.5518
lfoot -23.6572 11.1732
ltoes -57.7777
410
root -0.960058 18.5117 5.79096 -5.39748 -12.4581 -4.72447
lowerback 14.2013 -2.76132 4.94017
upperback 2.02309 -2.60921 5.03902
thorax -5.79899 -1.34783 3.05266
lowerneck -13.1317 -0.0950369 1.04113
upperneck 16.6838 -0.648515 1.45656
head 7.28756 -0.118856 0.236363
rclavicle 1.0138e-014 1.27222e-014
rhumerus -65.5306 -26.751 -45.3052
rradius 42.7431
rwrist 5.9878
rhand -8.07111 -30.7804
rfingers 7.12502
rthumb 17.8404 -59.982
lclavicle 1.0138e-014 1.27222e-014
lhumerus -31.9788 -8.50407 80.2279
lradius 58.1619
lwrist 9.59036
lhand -13.8033 -28.8143
lfingers 7.12502
lthumb 12.3188 0.802806
rfemur 13.6358 7.21451 20.3392
rtibia -3.18055e-015
rfoot -16.2519 -8.49808
rtoes -17.3944
lfemur 2.96319 1.81983 -8.41933
ltibia 25.5868
lfoot -23.5783 11.1594
ltoes -57.8048
411
root -0.955964 18.5118 5.79393 -5.35457 -12.5382 -4.7319
lowerback 14.2222 -2.83362 4.8489
upperback 2.04134 -2.71547 5.10203
thorax -5.78221 -1.39778 3.19205
lowerneck -12.8787 0.1666 1.25055
upperneck 16.9508 -0.195541 0.719277
head 7.32718 0.0439267 0.00709506
rclavicle 7.7526e-015 -9.54166e-015
rhumerus -65.6255 -27.2731 -44.1108
rradius 43.2159
rwrist 5.34175
rhand -8.30906 -30.7219
rfingers 7.12502
rthumb 17.6114 -59.9442
lclavicle 7.7526e-015 -9.54166e-015
lhumerus -32.0883 -7.46967 79.2707
lradius 57.6738
lwrist 9.26689
lhand -13.9058 -28.8283
lfingers 7.12502
lthumb 12.2199 0.79473
rfemur 13.597 7.335 20.3563
rtibia -2.54444e-014
rfoot -16.2845 -8.54309
rtoes -17.4507
lfemur 2.9193 1.97673 -8.39216
ltibia 25.6281
lfoot -23.5219 11.0911
ltoes -57.8323
412
root -0.949754 18.5117 5.79699 -5.29398 -12.5991 -4.81231
lowerback 14.2347 -2.86818 4.90666
upperback 2.09869 -2.75483 5.11751
thorax -5.72916 -1.41794 3.1819
lowerneck -12.7578 0.550369 1.94221
upperneck 17.3048 0.395361 -0.379643
head 7.42638 0.270863 -0.406754
rclavicle -3.21037e-014 3.18055e-014
rhumerus -65.6855 -27.8738 -43.0891
rradius 43.7855
rwrist 4.60671
rhand -8.62762 -30.6228
rfingers 7.12502
rthumb 17.3049 -59.8724
lclavicle -3.21037e-014 3.18055e-014
lhumerus -32.104 -6.53972 78.3353
lradius 57.1442
lwrist 8.79504
lhand -13.784 -28.6667
lfingers 7.12502
lthumb 12.3373 0.949278
rfemur 13.5559 7.43124 20.4354
rtibia 1.11319e-014
rfoot -16.3303 -8.55402
rtoes -17.2871
lfemur 2.87106 2.06151 -8.30689
ltibia 25.666
lfoot -23.465 11.0184
ltoes -57.8131
413
root -0.942614 18.5124 5.79969 -5.2216 -12.6377 -4.87227
lowerback 14.2827 -2.88485 4.99514
upperback 2.12488 -2.76168 5.10492
thorax -5.73227 -1.42303 3.12202
lowerneck -12.7009 0.955913 2.34161
upperneck 17.8197 0.992126 -1.01567
head 7.5977 0.524047 -0.6213
rclavicle 2.5345e-014 -2.8625e-014
rhumerus -65.6479 -28.3381 -42.2498
rradius 44.3977
rwrist 3.8679
rhand -9.23926 -29.9764
rfingers 7.12502
rthumb 16.7161 -59.2767
lclavicle 2.5345e-014 -2.8625e-014
lhumerus -32.1593 -5.73597 77.5032
lradius 56.5799
lwrist 8.45309
lhand -13.535 -28.2108
lfingers 7.12502
lthumb 12.5774 1.39055
rfemur 13.491 7.50861 20.4846
rtibia -9.54166e-015
rfoot -16.3521 -8.61284
rtoes -17.3545
lfemur 2.80404 2.08219 -8.26381
ltibia 25.6993
lfoot -23.4292 10.9656
ltoes -57.7192
414
root -0.93335 18.5147 5.80351 -5.17351 -12.6441 -4.78564
lowerback 14.2972 -2.8893 4.93667
upperback 2.14496 -2.77906 5.06308
thorax -5.71788 -1.43052 3.11323
lowerneck -12.6071 1.42515 2.56172
upperneck 18.392 1.65262 -1.30851
head 7.7861 0.82676 -0.686793
rclavicle -1.28216e-014 2.8625e-014
rhumerus -65.4821 -28.6062 -41.6095
rradius 45.0951
rwrist 3.22255
rhand -10.0165 -29.286
rfingers 7.12502
rthumb 15.9678 -58.6478
lclavicle -1.28216e-014 2.8625e-014
lhumerus -32.3045 -5.03911 76.8092
lradius 55.963
lwrist 8.32402
lhand -13.3489 -27.7416
lfingers 7.12502
lthumb 12.7568 1.84871
rfemur 13.4169 7.57038 20.37
rtibia -4.77083e-015
rfoot -16.3233 -8.75466
rtoes -17.9422
lfemur 2.73356 2.04891 -8.40965
ltibia 25.7279
lfoot -23.4584 10.9753
ltoes -57.6232
415
root -0.923368 18.5179 5.80711 -5.15059 -12.6445 -4.67427
lowerback 14.3283 -2.87107 4.80498
upperback 2.17592 -2.77652 5.0322
thorax -5.69728 -1.42673 3.15375
lowerneck -12.4555 2.08199 3.18117
upperneck 19.0289 2.57494 -1.98577
head 8.00745 1.24378 -0.917519
rclavicle -8.12035e-014 -1.43125e-014
rhumerus -65.2157 -28.7128 -41.1266
rradius 45.8743
rwrist 2.68609
rhand -10.2973 -29.4755
rfingers 7.12502
rthumb 15.6973 -58.8588
lclavicle -8.12035e-014 -1.43125e-014
lhumerus -32.5351 -4.35909 76.2305
lradius 55.3226
lwrist 8.19434
lhand -13.1418 -27.3026
lfingers 7.12502
lthumb 12.9565 2.27516
rfemur 13.3681 7.62824 20.2313
rtibia -3.65764e-014
rfoot -16.2792 -8.91247
rtoes -18.5899
lfemur 2.68673 2.08141 -8.56788
ltibia 25.742
lfoot -23.4417 10.9757
ltoes -57.6114
416
root -0.913638 18.5213 5.81065 -5.10572 -12.6659 -4.6523
lowerback 14.3993 -2.82565 4.80078
upperback 2.16963 -2.71238 4.99527
thorax -5.74572 -1.39545 3.10883
lowerneck -12.2073 2.92608 4.18768
upperneck 19.824 3.75973 -2.97543
head 8.30252 1.78176 -1.28847
rclavicle -1.02374e-014 -3.18055e-014
rhumerus -64.9734 -28.7135 -40.7161
rradius 46.7232
rwrist 2.00985
rhand -10.8555 -29.5642
rfingers 7.12502
rthumb 15.1597 -58.9889
lclavicle -1.02374e-014 -3.18055e-014
lhumerus -32.9084 -3.76187 75.7077
lradius 54.7548
lwrist 7.95275
lhand -12.6787 -26.7951
lfingers 7.12502
lthumb 13.4029 2.75374
rfemur 13.3098 7.6983 20.1855
rtibia 1.59028e-015
rfoot -16.2655 -9.00476
rtoes -18.6991
lfemur 2.6407 2.22532 -8.59814
ltibia 25.7424
lfoot -23.3504 10.9347
ltoes -57.6604
